<?xml version="1.0" encoding="UTF-8" standalone="no"?>
<!-- Generator: Adobe Illustrator 19.0.0, SVG Export Plug-In . SVG Version: 6.00 Build 0)  -->

<svg
   xmlns:dc="http://purl.org/dc/elements/1.1/"
   xmlns:cc="http://creativecommons.org/ns#"
   xmlns:rdf="http://www.w3.org/1999/02/22-rdf-syntax-ns#"
   xmlns:svg="http://www.w3.org/2000/svg"
   xmlns="http://www.w3.org/2000/svg"
   xmlns:sodipodi="http://sodipodi.sourceforge.net/DTD/sodipodi-0.dtd"
   xmlns:inkscape="http://www.inkscape.org/namespaces/inkscape"
   version="1.1"
   id="Layer_1"
   x="0px"
   y="0px"
   viewBox="0 0 370.85501 512"
   xml:space="preserve"
   sodipodi:docname="userpin.svg"
   inkscape:version="0.92.3 (2405546, 2018-03-11)"
   width="370.85501"
   height="512"><metadata
   id="metadata43"><rdf:RDF><cc:Work
       rdf:about=""><dc:format>image/svg+xml</dc:format><dc:type
         rdf:resource="http://purl.org/dc/dcmitype/StillImage" /><dc:title></dc:title></cc:Work></rdf:RDF></metadata><defs
   id="defs41">
	

		
	</defs><sodipodi:namedview
   pagecolor="#ffffff"
   bordercolor="#666666"
   borderopacity="1"
   objecttolerance="10"
   gridtolerance="10"
   guidetolerance="10"
   inkscape:pageopacity="0"
   inkscape:pageshadow="2"
   inkscape:window-width="1373"
   inkscape:window-height="845"
   id="namedview39"
   showgrid="false"
   inkscape:zoom="0.5"
   inkscape:cx="185.42751"
   inkscape:cy="256"
   inkscape:window-x="67"
   inkscape:window-y="27"
   inkscape:window-maximized="1"
   inkscape:current-layer="Layer_1" />

<g
   id="g8"
   transform="matrix(1.0000659,0,0,0.99406493,1.4965777,1.5365804)">
</g>
<g
   id="g10"
   transform="matrix(1.0000659,0,0,0.99406493,1.4965777,1.5365804)">
</g>
<g
   id="g12"
   transform="matrix(1.0000659,0,0,0.99406493,1.4965777,1.5365804)">
</g>
<g
   id="g14"
   transform="matrix(1.0000659,0,0,0.99406493,1.4965777,1.5365804)">
</g>
<g
   id="g16"
   transform="matrix(1.0000659,0,0,0.99406493,1.4965777,1.5365804)">
</g>
<g
   id="g18"
   transform="matrix(1.0000659,0,0,0.99406493,1.4965777,1.5365804)">
</g>
<g
   id="g20"
   transform="matrix(1.0000659,0,0,0.99406493,1.4965777,1.5365804)">
</g>
<g
   id="g22"
   transform="matrix(1.0000659,0,0,0.99406493,1.4965777,1.5365804)">
</g>
<g
   id="g24"
   transform="matrix(1.0000659,0,0,0.99406493,1.4965777,1.5365804)">
</g>
<g
   id="g26"
   transform="matrix(1.0000659,0,0,0.99406493,1.4965777,1.5365804)">
</g>
<g
   id="g28"
   transform="matrix(1.0000659,0,0,0.99406493,1.4965777,1.5365804)">
</g>
<g
   id="g30"
   transform="matrix(1.0000659,0,0,0.99406493,1.4965777,1.5365804)">
</g>
<g
   id="g32"
   transform="matrix(1.0000659,0,0,0.99406493,1.4965777,1.5365804)">
</g>
<g
   id="g34"
   transform="matrix(1.0000659,0,0,0.99406493,1.4965777,1.5365804)">
</g>
<g
   id="g36"
   transform="matrix(1.0000659,0,0,0.99406493,1.4965777,1.5365804)">
</g>
<g
   id="g834"
   style="fill:#3fb1ce;fill-opacity:1;stroke:#2f849a;stroke-width:6.04184484;stroke-miterlimit:4;stroke-dasharray:none;stroke-opacity:1"
   transform="matrix(0.98396847,0,0,0.98835393,2.9724924,3.0029804)"><path
     inkscape:connector-curvature="0"
     id="path2"
     d="M 185.42773,6.8292723e-4 C 83.182734,6.8292723e-4 0,83.182464 0,185.42646 c 0,126.888 165.9389,313.16716 173.0039,321.03516 6.636,7.391 18.22366,7.378 24.84766,0 7.065,-7.868 173.0039,-194.14716 173.0039,-321.03516 C 370.85346,83.182464 287.67173,6.8292723e-4 185.42773,6.8292723e-4 Z m 0,32.52929707277 A 152.41991,152.41991 0 0 1 337.84765,184.9499 152.41991,152.41991 0 0 1 185.42773,337.36982 152.41991,152.41991 0 0 1 33.007814,184.9499 152.41991,152.41991 0 0 1 185.42773,32.52998 Z"
     style="fill:#3fb1ce;fill-opacity:1;stroke:#2f849a;stroke-width:6.04184484;stroke-miterlimit:4;stroke-dasharray:none;stroke-opacity:1" /><g
     style="fill:#3fb1ce;fill-opacity:1;stroke:#2f849a;stroke-width:4.10272455;stroke-miterlimit:4;stroke-dasharray:none;stroke-opacity:1"
     transform="matrix(1.4726421,0,0,1.4726421,-192.91589,-90.185289)"
     id="g4581"><path
       inkscape:connector-curvature="0"
       d="m 256.92522,193.37218 c 22.803,0 41.29061,-21.63774 41.29061,-48.329 0,-37.01347 -18.4867,-48.328558 -41.29061,-48.328558 -22.8048,0 -41.29061,11.315088 -41.29061,48.328558 4.6e-4,26.69126 18.48625,48.329 41.29061,48.329 z"
       id="path2-7"
       style="fill:#3fb1ce;fill-opacity:1;stroke:#2f849a;stroke-width:4.10272455;stroke-miterlimit:4;stroke-dasharray:none;stroke-opacity:1" /><path
       d="m 224.4614,195.50491 c -0.29007,0.0161 -0.5783,0.0923 -0.84566,0.23119 l -32.32772,16.82976 c -2.08434,1.0847 -3.75633,2.86507 -4.71005,5.01332 l -6.94025,15.63511 a 90.801954,90.801954 0 0 0 77.2868,43.27565 90.801954,90.801954 0 0 0 77.26745,-43.32312 l -6.92002,-15.58764 c -0.95283,-2.14734 -2.62661,-3.92862 -4.71005,-5.01332 L 290.23242,195.7361 c -0.71294,-0.37041 -1.5761,-0.29795 -2.21702,0.18725 -9.14388,6.91596 -19.89509,10.57167 -31.09,10.57166 -11.19671,0 -21.94701,-3.6557 -31.0909,-10.57166 -0.40169,-0.30325 -0.88964,-0.44515 -1.3731,-0.41844 z"
       id="path4"
       inkscape:connector-curvature="0"
       style="fill:#3fb1ce;fill-opacity:1;stroke:#2f849a;stroke-width:4.10272455;stroke-miterlimit:4;stroke-dasharray:none;stroke-opacity:1" /></g></g></svg>